<svg width="24" height="24" viewBox="0 0 24 24" fill="none" xmlns="http://www.w3.org/2000/svg">
<path d="M2.87813 3C1.28906 3 0 4.28906 0 5.87813C0 5.92031 0 5.95781 0.0046875 6H0V18C0 19.6547 1.34531 21 3 21H21C22.6547 21 24 19.6547 24 18V6H23.9953C23.9953 5.95781 24 5.92031 24 5.87813C24 4.28906 22.7109 3 21.1219 3H2.87813ZM21.75 9.01406V18C21.75 18.4125 21.4125 18.75 21 18.75H3C2.5875 18.75 2.25 18.4125 2.25 18V9.01406L9.50625 14.5172C10.9781 15.6375 13.0172 15.6375 14.4938 14.5172L21.75 9.01406ZM2.25 5.87813C2.25 5.53125 2.53125 5.25 2.87813 5.25H21.1219C21.4688 5.25 21.75 5.53125 21.75 5.87813C21.75 6.075 21.6562 6.2625 21.5016 6.37969L13.1344 12.7266C12.4641 13.2328 11.5359 13.2328 10.8656 12.7266L2.49844 6.37969C2.34375 6.2625 2.25 6.075 2.25 5.87813Z" fill="white"/>
</svg>
