<svg width="24" height="24" viewBox="0 0 24 24" fill="none" xmlns="http://www.w3.org/2000/svg">
<path d="M24 2.2499C24 1.86084 23.7984 1.4999 23.4703 1.29365C23.1422 1.0874 22.725 1.06865 22.3781 1.24209L16.5234 4.12959L8.4375 1.37803C7.79531 1.15771 7.09219 1.1999 6.47344 1.48584L0.646875 4.23271C0.253125 4.41553 0 4.81396 0 5.2499V21.7499C0 22.1343 0.196875 22.4952 0.520313 22.7015C0.84375 22.9077 1.25156 22.9312 1.60313 22.7671L7.57031 19.9593L15.5719 22.6265C16.2141 22.8421 16.9078 22.7999 17.5219 22.5093L23.3531 19.7671C23.7469 19.5796 24 19.1858 24 18.7499V2.2499ZM6.75 3.84834V17.864L2.25 19.9827V5.96709L6.75 3.84834ZM9 18.0655V3.95146L15 5.99053V20.0671L9 18.0655ZM17.25 6.28115L21.75 4.05928V18.0374L17.25 20.1561V6.28115Z" fill="white"/>
</svg>
