<svg width="24" height="24" viewBox="0 0 24 24" fill="none" xmlns="http://www.w3.org/2000/svg">
<g clip-path="url(#clip0_522_32)">
<path d="M7.50943 1.17196C7.13911 0.286019 6.17349 -0.182731 5.25474 0.0657069L4.99693 0.136019C1.9688 0.961019 -0.618698 3.89539 0.135989 7.46727C1.87505 15.6704 8.32974 22.1251 16.5329 23.8641C20.1094 24.6235 23.0391 22.0313 23.8641 19.0032L23.9344 18.7454C24.1876 17.822 23.7141 16.8563 22.8329 16.4907L18.2719 14.5923C17.4985 14.2688 16.6032 14.4938 16.0688 15.1454L14.2594 17.3579C10.9641 15.722 8.31099 12.9845 6.78755 9.62352L8.85943 7.93602C9.51099 7.40633 9.7313 6.51102 9.41255 5.73289L7.50943 1.17196Z" fill="white"/>
</g>
<defs>
<clipPath id="clip0_522_32">
<rect width="24" height="24" fill="white"/>
</clipPath>
</defs>
</svg>
